#N canvas 472 19 902 689 10;
#X obj 159 507 *~;
#X obj 478 62 r \$0-trigger;
#X msg 478 228 0.8 \, 0 \$1;
#X obj 159 569 *~;
#X obj 156 625 dac~;
#X obj 682 483 bng 25 250 50 0 empty empty empty 17 7 0 10 -262144
-1 -1;
#X obj 682 553 s \$0-trigger;
#X obj 682 11 hsl 128 15 0 1 0 0 empty empty Fmod -2 -8 0 10 -262144
-1 -1 2100 1;
#X obj 684 103 hsl 128 15 0 1 0 0 empty empty Indice -2 -8 0 10 -262144
-1 -1 3700 1;
#X obj 682 208 hsl 128 15 0 1 0 0 empty empty Crelease -2 -8 0 10 -262144
-1 -1 4400 1;
#X obj 684 395 hsl 128 15 0 1 0 0 empty empty Gain -2 -8 0 10 -262144
-1 -1 10700 1;
#X obj 689 419 r Channel-E;
#X obj 716 483 r Channel-Push;
#X obj 683 447 s \$0-gain;
#X obj 499 117 * 2950;
#X obj 499 139 + 50;
#X obj 478 299 line~;
#X obj 250 521 r \$0-gain;
#X obj 716 511 sel 1;
#X obj 478 193 i, f 4;
#X obj 50 253 mtof;
#X obj 172 97 > 0;
#X obj 172 119 sel 1;
#X obj 172 143 s \$0-trigger;
#N canvas 16 204 450 300 polySteal 0;
#X obj 124 19 inlet;
#X obj 225 22 inlet;
#X obj 136 226 outlet;
#X obj 283 227 outlet;
#X obj 210 121 > 0;
#X obj 210 143 sel 1;
#X obj 210 99 i;
#X obj 136 196 i;
#X obj 124 41 t b f;
#X obj 283 196 i;
#X connect 0 0 8 0;
#X connect 1 0 6 1;
#X connect 1 0 9 1;
#X connect 4 0 5 0;
#X connect 5 0 7 0;
#X connect 5 0 9 0;
#X connect 6 0 4 0;
#X connect 7 0 2 0;
#X connect 8 0 6 0;
#X connect 8 1 7 1;
#X connect 9 0 3 0;
#X restore 102 66 pd polySteal;
#X obj 102 31 notein;
#X obj 269 247 mtof;
#X obj 269 222 +, f 5;
#X obj 268 120 * 36;
#X obj 391 91 > 0;
#X obj 391 113 sel 1;
#X obj 391 137 s \$0-trigger;
#X obj 268 164 t b f;
#X obj 269 196 i;
#X obj 268 142 + 12;
#X obj 160 354 *~;
#X obj 92 397 +~;
#X obj 91 441 osc~;
#X obj 182 317 osc~;
#X obj 282 320 * 5000;
#X obj 682 164 s \$0-indice;
#X obj 284 289 r \$0-indice;
#X obj 683 65 s \$0-fmod;
#X obj 268 98 r \$0-fmod;
#X obj 565 59 r \$0-trigger;
#X msg 565 225 0.8 \, 0 \$1;
#X obj 586 114 * 2950;
#X obj 586 136 + 50;
#X obj 565 296 line~;
#X obj 565 190 i, f 4;
#X obj 686 258 s \$0-Crelease;
#X obj 499 95 r \$0-Crelease;
#X obj 586 92 r \$0-Mrelease;
#X obj 683 353 s \$0-Mrelease;
#X obj 166 389 *~;
#X obj 693 36 r Channel-A;
#X obj 696 128 r Channel-B;
#X obj 692 230 r Channel-C;
#X obj 690 325 r Channel-D;
#X obj 683 302 hsl 128 15 0 1 0 0 empty empty Mrelease -2 -8 0 10 -262144
-1 -1 6700 1;
#X connect 0 0 3 0;
#X connect 1 0 19 0;
#X connect 2 0 16 0;
#X connect 3 0 4 0;
#X connect 3 0 4 1;
#X connect 5 0 6 0;
#X connect 7 0 42 0;
#X connect 8 0 40 0;
#X connect 9 0 50 0;
#X connect 10 0 13 0;
#X connect 11 0 13 0;
#X connect 12 0 18 0;
#X connect 14 0 15 0;
#X connect 15 0 19 1;
#X connect 16 0 0 1;
#X connect 17 0 3 1;
#X connect 18 0 6 0;
#X connect 19 0 2 0;
#X connect 20 0 36 0;
#X connect 21 0 22 0;
#X connect 22 0 23 0;
#X connect 24 0 20 0;
#X connect 24 0 33 0;
#X connect 24 1 21 0;
#X connect 24 1 29 0;
#X connect 25 0 24 0;
#X connect 25 1 24 1;
#X connect 26 0 38 0;
#X connect 27 0 26 0;
#X connect 28 0 34 0;
#X connect 29 0 30 0;
#X connect 30 0 31 0;
#X connect 32 0 33 0;
#X connect 32 1 27 1;
#X connect 33 0 27 0;
#X connect 34 0 32 0;
#X connect 35 0 54 0;
#X connect 36 0 37 0;
#X connect 37 0 0 0;
#X connect 38 0 35 0;
#X connect 39 0 35 1;
#X connect 41 0 39 0;
#X connect 43 0 28 0;
#X connect 44 0 49 0;
#X connect 45 0 48 0;
#X connect 46 0 47 0;
#X connect 47 0 49 1;
#X connect 48 0 54 1;
#X connect 49 0 45 0;
#X connect 51 0 14 0;
#X connect 52 0 46 0;
#X connect 54 0 36 1;
#X connect 55 0 42 0;
#X connect 56 0 40 0;
#X connect 57 0 50 0;
#X connect 58 0 53 0;
#X connect 59 0 53 0;
